<?xml version="1.0" encoding="UTF-8" standalone="no"?>
<svg
   width="250"
   height="320"
   viewBox="0 0 250 320"
   version="1.1"
   id="svg9"
   xmlns="http://www.w3.org/2000/svg"
   xmlns:svg="http://www.w3.org/2000/svg">
  <defs
     id="defs9" />
  <path
     d="m124.8 7.68-76.18 37.15 75.87 36.85 76.33-37.22-76.02-36.78z"
     fill="#fff"
     id="path1" />
  <path
     d="m126.9 85.41 78-37.72v41.03l-78 37.55v-40.86z"
     fill="#fff"
     id="path2" />
  <path
     d="m45.12 47.69v41.03l77.06 37.55v-40.54l-77.06-38.04z"
     fill="#fff"
     id="path3" />
  <path
     d="m16.97 84.85 21.76-10.86-0.02-0.01 0.01-0.01 0.01 0.01 0.2-0.1h0.02v-0.01l0.02-0.01-0.02 0.01v0.01h0.01-0.01v21l-21.98-10.03z"
     fill="#fff"
     id="path4" />
  <path
     d="m210.3 73.87 21.97 10.98-22.23 10.42 0.26-21.4z"
     fill="#fff"
     id="path5" />
  <path
     d="m13.58 88.21v40.41l18.23 8.99-14.73 6.88 21.53 10.76 0.01-14.63 83.56 41.55v-41.25l-108.6-52.71z"
     fill="#fff"
     id="path6" />
  <path
     d="m235.8 88.41-109 52.4v41.36l83.25-41.66v14.74l22.23-10.76-14.73-6.88 18.23-8.67 0.04-40.53z"
     fill="#fff"
     id="path7" />
  <path
     d="m13.58 147.7v40.84l108.6 53.82v-41.55l-108.6-53.11z"
     fill="#fff"
     id="path8" />
  <path
     d="m126.8 200.4 109-52.79v40.84l-108.9 53.51-0.1-41.56z"
     fill="#fff"
     id="path9" />
  <path
     d="m 66.409939,300 v -44.7 h 8.16 v 19.92 l 16.8,-19.92 H 101.62994 L 86.149939,273.72 102.16994,300 h -9.600001 l -12,-19.68 -6,7.14 V 300 Z m 40.080051,-36.3 v -8.4 h 7.86 v 8.4 z m 0,36.3 v -32.64 h 7.86 V 300 Z m 27.54005,0.72 q -5.22,0 -9.12,-2.46 -3.84,-2.52 -5.28,-6.78 l 5.88,-2.82 q 1.26,2.76 3.48,4.32 2.28,1.56 5.04,1.56 2.1,0 3.36,-0.9 1.32,-0.96 1.32,-2.58 0,-1.44 -1.14,-2.22 -1.08,-0.78 -2.64,-1.2 l -5.34,-1.5 q -4.14,-1.14 -6.3,-3.6 -2.1,-2.52 -2.1,-5.88 0,-3 1.56,-5.22 1.56,-2.28 4.26,-3.54 2.7,-1.26 6.24,-1.26 4.62,0 8.16,2.28 3.54,2.22 5.04,6.18 l -6,2.82 q -0.84,-2.22 -2.82,-3.54 -1.98,-1.32 -4.44,-1.32 -1.98,0 -3.12,0.9 -1.14,0.9 -1.14,2.34 0,1.38 1.02,2.16 1.08,0.78 2.82,1.26 l 5.22,1.56 q 4.02,1.2 6.18,3.66 2.22,2.4 2.22,5.82 0,3 -1.56,5.22 -1.56,2.22 -4.38,3.48 -2.76,1.26 -6.42,1.26 z m 34.38,0 q -4.8,0 -8.76,-2.22 -3.9,-2.22 -6.24,-6.06 -2.28,-3.84 -2.28,-8.76 0,-4.92 2.28,-8.76 2.34,-3.84 6.24,-6.06 3.9,-2.22 8.76,-2.22 4.74,0 8.64,2.22 3.9,2.22 6.24,6.06 2.34,3.84 2.34,8.76 0,4.92 -2.34,8.82 -2.34,3.84 -6.24,6.06 -3.9,2.16 -8.64,2.16 z m 0,-7.2 q 2.58,0 4.62,-1.26 2.04,-1.26 3.18,-3.48 1.2,-2.22 1.2,-5.1 0,-2.82 -1.2,-5.04 -1.14,-2.22 -3.18,-3.48 -2.04,-1.32 -4.62,-1.32 -2.7,0 -4.74,1.32 -2.04,1.26 -3.24,3.48 -1.14,2.22 -1.14,5.04 0,2.88 1.14,5.1 1.2,2.22 3.24,3.48 2.04,1.26 4.74,1.26 z"
     id="text9"
     style="font-weight:700;font-size:60px;font-family:'Plus Jakarta Sans', sans-serif;text-anchor:middle;fill:#ffffff"
     aria-label="Kiso" />
</svg>
