<?xml version="1.0" encoding="UTF-8" standalone="no"?>
<svg
   width="530"
   height="250"
   viewBox="0 0 530 250"
   version="1.1"
   id="svg9"
   xmlns="http://www.w3.org/2000/svg"
   xmlns:svg="http://www.w3.org/2000/svg">
  <defs
     id="defs9" />
  <path
     d="m124.8 7.68-76.18 37.15 75.87 36.85 76.33-37.22-76.02-36.78z"
     fill="#f43f5e"
     id="path1" />
  <path
     d="m126.9 85.41 78-37.72v41.03l-78 37.55v-40.86z"
     fill="#e11d48"
     id="path2" />
  <path
     d="m45.12 47.69v41.03l77.06 37.55v-40.54l-77.06-38.04z"
     fill="#fb7185"
     id="path3" />
  <path
     d="m16.97 84.85 21.76-10.86-0.02-0.01 0.01-0.01 0.01 0.01 0.2-0.1h0.02v-0.01l0.02-0.01-0.02 0.01v0.01h0.01-0.01v21l-21.98-10.03z"
     fill="#fb7185"
     id="path4" />
  <path
     d="m210.3 73.87 21.97 10.98-22.23 10.42 0.26-21.4z"
     fill="#e11d48"
     id="path5" />
  <path
     d="m13.58 88.21v40.41l18.23 8.99-14.73 6.88 21.53 10.76 0.01-14.63 83.56 41.55v-41.25l-108.6-52.71z"
     fill="#fb7185"
     id="path6" />
  <path
     d="m235.8 88.41-109 52.4v41.36l83.25-41.66v14.74l22.23-10.76-14.73-6.88 18.23-8.67 0.04-40.53z"
     fill="#e11d48"
     id="path7" />
  <path
     d="m13.58 147.7v40.84l108.6 53.82v-41.55l-108.6-53.11z"
     fill="#f43f5e"
     id="path8" />
  <path
     d="m126.8 200.4 109-52.79v40.84l-108.9 53.51-0.1-41.56z"
     fill="#be123c"
     id="path9" />
  <path
     d="M 275.2,165 V 90.5 h 13.6 v 33.2 l 28,-33.2 h 17.1 l -25.8,30.7 26.7,43.8 h -16 l -20,-32.8 -10,11.9 V 165 Z m 66.80009,-60.5 v -14 h 13.1 v 14 z m 0,60.5 v -54.4 h 13.1 V 165 Z m 45.90008,1.2 q -8.7,0 -15.2,-4.1 -6.4,-4.2 -8.8,-11.3 l 9.8,-4.7 q 2.1,4.6 5.8,7.2 3.8,2.6 8.4,2.6 3.5,0 5.6,-1.5 2.2,-1.6 2.2,-4.3 0,-2.4 -1.9,-3.7 -1.8,-1.3 -4.4,-2 l -8.9,-2.5 q -6.9,-1.9 -10.5,-6 -3.5,-4.2 -3.5,-9.8 0,-5 2.6,-8.7 2.6,-3.8 7.1,-5.9 4.5,-2.1 10.4,-2.1 7.7,0 13.6,3.8 5.9,3.7 8.4,10.3 l -10,4.7 q -1.4,-3.7 -4.7,-5.9 -3.3,-2.2 -7.4,-2.2 -3.3,0 -5.2,1.5 -1.9,1.5 -1.9,3.9 0,2.3 1.7,3.6 1.8,1.3 4.7,2.1 l 8.7,2.6 q 6.7,2 10.3,6.1 3.7,4 3.7,9.7 0,5 -2.6,8.7 -2.6,3.7 -7.3,5.8 -4.6,2.1 -10.7,2.1 z m 57.29998,0 q -8,0 -14.6,-3.7 -6.5,-3.7 -10.4,-10.1 -3.8,-6.4 -3.8,-14.6 0,-8.2 3.8,-14.6 3.9,-6.4 10.4,-10.1 6.5,-3.7 14.6,-3.7 7.9,0 14.4,3.7 6.5,3.7 10.4,10.1 3.9,6.4 3.9,14.6 0,8.2 -3.9,14.7 -3.9,6.4 -10.4,10.1 -6.5,3.6 -14.4,3.6 z m 0,-12 q 4.3,0 7.7,-2.1 3.4,-2.1 5.3,-5.8 2,-3.7 2,-8.5 0,-4.7 -2,-8.4 -1.9,-3.7 -5.3,-5.8 -3.4,-2.2 -7.7,-2.2 -4.5,0 -7.9,2.2 -3.4,2.1 -5.4,5.8 -1.9,3.7 -1.9,8.4 0,4.8 1.9,8.5 2,3.7 5.4,5.8 3.4,2.1 7.9,2.1 z"
     id="text9"
     style="font-weight:700;font-size:100px;font-family:'Plus Jakarta Sans', sans-serif;fill:#18181b"
     aria-label="Kiso" />
</svg>
