<svg xmlns="http://www.w3.org/2000/svg" width="250" height="250" viewBox="0 0 250 250">
  <path d="m124.8 7.68-76.18 37.15 75.87 36.85 76.33-37.22-76.02-36.78z" fill="#fff"/>
  <path d="m126.9 85.41 78-37.72v41.03l-78 37.55v-40.86z" fill="#fff"/>
  <path d="m45.12 47.69v41.03l77.06 37.55v-40.54l-77.06-38.04z" fill="#fff"/>
  <path d="m16.97 84.85 21.76-10.86-0.02-0.01 0.01-0.01 0.01 0.01 0.2-0.1h0.02v-0.01l0.02-0.01-0.02 0.01v0.01h0.01-0.01v21l-21.98-10.03z" fill="#fff"/>
  <path d="m210.3 73.87 21.97 10.98-22.23 10.42 0.26-21.4z" fill="#fff"/>
  <path d="m13.58 88.21v40.41l18.23 8.99-14.73 6.88 21.53 10.76 0.01-14.63 83.56 41.55v-41.25l-108.6-52.71z" fill="#fff"/>
  <path d="m235.8 88.41-109 52.4v41.36l83.25-41.66v14.74l22.23-10.76-14.73-6.88 18.23-8.67 0.04-40.53z" fill="#fff"/>
  <path d="m13.58 147.7v40.84l108.6 53.82v-41.55l-108.6-53.11z" fill="#fff"/>
  <path d="m126.8 200.4 109-52.79v40.84l-108.9 53.51-0.1-41.56z" fill="#fff"/>
</svg>
